<svg width="21" height="20" viewBox="0 0 21 20" fill="none" xmlns="http://www.w3.org/2000/svg">
    <path fill-rule="evenodd" clip-rule="evenodd" d="M17.1666 5.83398H16.1916C15.7474 5.83434 15.3215 5.65735 15.0083 5.34232L13.7333 4.06732C13.2649 3.59834 12.6294 3.33457 11.9666 3.33398H9.03329C8.37047 3.33457 7.73502 3.59834 7.26663 4.06732L5.99163 5.34232C5.67846 5.65735 5.2525 5.83434 4.80829 5.83398H3.83329C2.91282 5.83398 2.16663 6.58018 2.16663 7.50065V15.0007C2.16663 15.9211 2.91282 16.6673 3.83329 16.6673H17.1666C18.0871 16.6673 18.8333 15.9211 18.8333 15.0007V7.50065C18.8333 6.58018 18.0871 5.83398 17.1666 5.83398ZM10.5 14.1673C8.65901 14.1673 7.16663 12.6749 7.16663 10.834C7.16663 8.99304 8.65901 7.50065 10.5 7.50065C12.3409 7.50065 13.8333 8.99304 13.8333 10.834C13.8333 11.718 13.4821 12.5659 12.857 13.191C12.2319 13.8161 11.384 14.1673 10.5 14.1673ZM10.8416 8.95899C11.1682 9.63116 11.7111 10.1741 12.3833 10.5007C12.5082 10.5644 12.5859 10.6938 12.5833 10.834C12.5719 10.9708 12.4851 11.0898 12.3583 11.1423C11.6817 11.4695 11.1354 12.0157 10.8083 12.6923C10.7488 12.8094 10.6311 12.8857 10.5 12.8923H10.475C10.3438 12.8857 10.2262 12.8094 10.1666 12.6923C9.83947 12.0157 9.29326 11.4695 8.61663 11.1423C8.49955 11.0828 8.42325 10.9652 8.41663 10.834C8.41406 10.6938 8.4917 10.5644 8.61663 10.5007C9.2888 10.1741 9.83174 9.63116 10.1583 8.95899C10.2237 8.83042 10.3557 8.74946 10.5 8.74946C10.6442 8.74946 10.7762 8.83042 10.8416 8.95899Z" fill="black"/>
</svg>
