<svg width="27" height="27" viewBox="0 0 27 27" fill="none" xmlns="http://www.w3.org/2000/svg">
    <g filter="url(#filter0_d_3616_2711)">
        <mask id="path-1-outside-1_3616_2711" maskUnits="userSpaceOnUse" x="0.5" y="1" width="25" height="25" fill="black">
            <rect fill="white" x="0.5" y="1" width="25" height="25"/>
            <path fill-rule="evenodd" clip-rule="evenodd" d="M22.0396 6.76266C22.3252 6.52573 22.4501 5.95328 21.3492 4.92661C16.6032 0.500886 8.57901 1.27763 4.15329 6.02364L3 7.43608V4.76513L2.99315 4.66336C2.94349 4.29729 2.6297 4.01513 2.25 4.01513C1.83579 4.01513 1.5 4.35092 1.5 4.76513V9.28961C1.5 9.8419 1.94772 10.2896 2.5 10.2896H7.51861L7.62038 10.2828C7.98646 10.2331 8.26861 9.91931 8.26861 9.53961L8.26177 9.43784C8.2121 9.07177 7.89831 8.78961 7.51861 8.78961L3.837 8.78908L4.21419 8.32052L5.28317 7.00897L5.49075 6.7929C9.34195 2.89972 16.26 2.23184 20.3262 6.02364L20.6052 6.27685C21.3749 6.95319 21.6544 6.99009 21.9059 6.85199L21.9998 6.7929L22.0396 6.76266ZM25.2372 22.5245V18C25.2372 17.4477 24.7895 17 24.2372 17H19.2186L19.1169 17.0068C18.7508 17.0565 18.4686 17.3703 18.4686 17.75L18.4755 17.8518C18.5251 18.2178 18.8389 18.5 19.2186 18.5L22.9002 18.5005L22.523 18.9691L21.4541 20.2806L21.2465 20.4967C17.3953 24.3899 10.4773 25.0578 6.41107 21.266L6.13202 21.0128C5.36231 20.3364 5.08287 20.2995 4.83138 20.4376L4.73748 20.4967L4.69764 20.527C4.41207 20.7639 4.28711 21.3363 5.38808 22.363C10.1341 26.7887 18.1582 26.012 22.584 21.266L23.7372 19.8535V22.5245L23.7441 22.6263C23.7938 22.9923 24.1075 23.2745 24.4872 23.2745C24.9015 23.2745 25.2372 22.9387 25.2372 22.5245Z"/>
        </mask>
        <path fill-rule="evenodd" clip-rule="evenodd" d="M22.0396 6.76266C22.3252 6.52573 22.4501 5.95328 21.3492 4.92661C16.6032 0.500886 8.57901 1.27763 4.15329 6.02364L3 7.43608V4.76513L2.99315 4.66336C2.94349 4.29729 2.6297 4.01513 2.25 4.01513C1.83579 4.01513 1.5 4.35092 1.5 4.76513V9.28961C1.5 9.8419 1.94772 10.2896 2.5 10.2896H7.51861L7.62038 10.2828C7.98646 10.2331 8.26861 9.91931 8.26861 9.53961L8.26177 9.43784C8.2121 9.07177 7.89831 8.78961 7.51861 8.78961L3.837 8.78908L4.21419 8.32052L5.28317 7.00897L5.49075 6.7929C9.34195 2.89972 16.26 2.23184 20.3262 6.02364L20.6052 6.27685C21.3749 6.95319 21.6544 6.99009 21.9059 6.85199L21.9998 6.7929L22.0396 6.76266ZM25.2372 22.5245V18C25.2372 17.4477 24.7895 17 24.2372 17H19.2186L19.1169 17.0068C18.7508 17.0565 18.4686 17.3703 18.4686 17.75L18.4755 17.8518C18.5251 18.2178 18.8389 18.5 19.2186 18.5L22.9002 18.5005L22.523 18.9691L21.4541 20.2806L21.2465 20.4967C17.3953 24.3899 10.4773 25.0578 6.41107 21.266L6.13202 21.0128C5.36231 20.3364 5.08287 20.2995 4.83138 20.4376L4.73748 20.4967L4.69764 20.527C4.41207 20.7639 4.28711 21.3363 5.38808 22.363C10.1341 26.7887 18.1582 26.012 22.584 21.266L23.7372 19.8535V22.5245L23.7441 22.6263C23.7938 22.9923 24.1075 23.2745 24.4872 23.2745C24.9015 23.2745 25.2372 22.9387 25.2372 22.5245Z" fill="white"/>
        <path d="M21.3492 4.92661L21.4856 4.78034V4.78034L21.3492 4.92661ZM22.0396 6.76266L22.1606 6.92211L22.1673 6.91658L22.0396 6.76266ZM4.15329 6.02364L4.0067 5.88695L3.99837 5.89715L4.15329 6.02364ZM3 7.43608H2.8V7.99724L3.15492 7.56257L3 7.43608ZM3 4.76513H3.20045L3.19955 4.75171L3 4.76513ZM2.99315 4.66336L3.19316 4.64991L3.19134 4.63647L2.99315 4.66336ZM7.51861 10.2896V10.4901L7.53204 10.4892L7.51861 10.2896ZM7.62038 10.2828L7.63384 10.4828L7.64727 10.481L7.62038 10.2828ZM8.26861 9.53961H8.46906L8.46816 9.52619L8.26861 9.53961ZM8.26177 9.43784L8.46177 9.42439L8.45995 9.41096L8.26177 9.43784ZM7.51861 8.78961L7.51858 8.98961H7.51861V8.78961ZM3.837 8.78908L3.68121 8.66366L3.4193 8.98901L3.83697 8.98908L3.837 8.78908ZM4.21419 8.32052L4.05916 8.19416L4.0584 8.1951L4.21419 8.32052ZM5.28317 7.00897L5.13894 6.87041L5.13329 6.87629L5.12814 6.88261L5.28317 7.00897ZM5.49075 6.7929L5.34854 6.65224L5.34652 6.65434L5.49075 6.7929ZM20.3262 6.02364L20.1898 6.16992L20.1918 6.17175L20.3262 6.02364ZM20.6052 6.27685L20.4708 6.42498L20.4732 6.42709L20.6052 6.27685ZM21.9059 6.85199L22.0023 7.02761L22.0124 7.02127L21.9059 6.85199ZM21.9998 6.7929L22.1063 6.96218L22.1137 6.95751L22.1207 6.95221L21.9998 6.7929ZM19.2186 17V16.7995L19.2052 16.8005L19.2186 17ZM19.1169 17.0068L19.1034 16.8068L19.09 16.8087L19.1169 17.0068ZM18.4686 17.75H18.2682L18.2691 17.7634L18.4686 17.75ZM18.4755 17.8518L18.2755 17.8652L18.2773 17.8787L18.4755 17.8518ZM19.2186 18.5L19.2187 18.3H19.2186V18.5ZM22.9002 18.5005L23.056 18.626L23.3179 18.3006L22.9003 18.3005L22.9002 18.5005ZM22.523 18.9691L22.6781 19.0955L22.6788 19.0945L22.523 18.9691ZM21.4541 20.2806L21.5983 20.4192L21.604 20.4133L21.6091 20.407L21.4541 20.2806ZM21.2465 20.4967L21.3887 20.6374L21.3907 20.6353L21.2465 20.4967ZM6.41107 21.266L6.54749 21.1197L6.54547 21.1179L6.41107 21.266ZM6.13202 21.0128L6.26644 20.8646L6.26404 20.8625L6.13202 21.0128ZM4.83138 20.4376L4.73494 20.262L4.72487 20.2683L4.83138 20.4376ZM4.73748 20.4967L4.63097 20.3274L4.62354 20.3321L4.61655 20.3374L4.73748 20.4967ZM4.69764 20.527L4.5766 20.3675L4.56994 20.373L4.69764 20.527ZM5.38808 22.363L5.52448 22.2167L5.38808 22.363ZM22.584 21.266L22.7305 21.4027L22.7389 21.3925L22.584 21.266ZM23.7372 19.8535H23.9372V19.2924L23.5823 19.727L23.7372 19.8535ZM23.7372 22.5245H23.5368L23.5377 22.5379L23.7372 22.5245ZM23.7441 22.6263L23.5441 22.6397L23.5459 22.6531L23.7441 22.6263ZM21.2128 5.07288C21.7519 5.5756 21.9623 5.94215 22.0196 6.1865C22.0729 6.41345 21.9965 6.53856 21.9119 6.60874L22.1673 6.91658C22.3683 6.74984 22.4971 6.47025 22.409 6.09508C22.325 5.73731 22.0474 5.30429 21.4856 4.78034L21.2128 5.07288ZM4.29956 6.16004C8.66024 1.48378 16.5582 0.732384 21.2128 5.07288L21.4856 4.78034C16.6482 0.269389 8.49778 1.07149 4.00702 5.88724L4.29956 6.16004ZM3.15492 7.56257L4.3082 6.15013L3.99837 5.89715L2.84508 7.30958L3.15492 7.56257ZM2.8 4.76513V7.43608H3.2V4.76513H2.8ZM2.7936 4.67679L2.80045 4.77856L3.19955 4.75171L3.1927 4.64994L2.7936 4.67679ZM2.25 4.21513C2.52828 4.21513 2.75858 4.42199 2.79497 4.69025L3.19134 4.63647C3.12841 4.17258 2.73111 3.81513 2.25 3.81513V4.21513ZM1.7 4.76513C1.7 4.46137 1.94624 4.21513 2.25 4.21513V3.81513C1.72533 3.81513 1.3 4.24046 1.3 4.76513H1.7ZM1.7 9.28961V4.76513H1.3V9.28961H1.7ZM2.5 10.0896C2.05817 10.0896 1.7 9.73144 1.7 9.28961H1.3C1.3 9.95235 1.83726 10.4896 2.5 10.4896V10.0896ZM7.51861 10.0896H2.5V10.4896H7.51861V10.0896ZM7.60696 10.0832L7.50519 10.0901L7.53204 10.4892L7.63381 10.4823L7.60696 10.0832ZM8.06861 9.53961C8.06861 9.81789 7.86176 10.0482 7.5935 10.0846L7.64727 10.481C8.11116 10.418 8.46861 10.0207 8.46861 9.53961H8.06861ZM8.06222 9.45127L8.06906 9.55304L8.46816 9.52619L8.46131 9.42442L8.06222 9.45127ZM7.51861 8.98961C7.79689 8.98961 8.02719 9.19647 8.06358 9.46473L8.45995 9.41096C8.39702 8.94707 7.99972 8.58961 7.51861 8.58961V8.98961ZM3.83697 8.98908L7.51858 8.98961L7.51864 8.58961L3.83703 8.58908L3.83697 8.98908ZM4.0584 8.1951L3.68121 8.66366L3.99279 8.91449L4.36999 8.44593L4.0584 8.1951ZM5.12814 6.88261L4.05916 8.19416L4.36922 8.44687L5.4382 7.13533L5.12814 6.88261ZM5.34652 6.65434L5.13894 6.87041L5.42739 7.14753L5.63497 6.93146L5.34652 6.65434ZM20.4626 5.87737C16.3051 2.00047 9.26358 2.69456 5.34856 6.65225L5.63293 6.93356C9.42032 3.10488 16.2148 2.46321 20.1898 6.16991L20.4626 5.87737ZM20.7396 6.12873L20.4606 5.87553L20.1918 6.17175L20.4708 6.42496L20.7396 6.12873ZM21.8096 6.67668C21.7645 6.70146 21.7277 6.71328 21.6902 6.71603C21.6522 6.71882 21.5995 6.71331 21.5221 6.68334C21.3596 6.6204 21.1196 6.46261 20.7372 6.12661L20.4732 6.42709C20.8605 6.76743 21.1451 6.96626 21.3776 7.05633C21.4978 7.10287 21.6102 7.12296 21.7194 7.11496C21.829 7.10693 21.9215 7.07157 22.0021 7.02729L21.8096 6.67668ZM21.8932 6.62363L21.7993 6.68271L22.0124 7.02127L22.1063 6.96218L21.8932 6.62363ZM21.9187 6.60336L21.8788 6.6336L22.1207 6.95221L22.1605 6.92197L21.9187 6.60336ZM25.0372 18V22.5245H25.4372V18H25.0372ZM24.2372 17.2C24.6791 17.2 25.0372 17.5582 25.0372 18H25.4372C25.4372 17.3373 24.9 16.8 24.2372 16.8V17.2ZM19.2186 17.2H24.2372V16.8H19.2186V17.2ZM19.1303 17.2064L19.2321 17.1995L19.2052 16.8005L19.1034 16.8073L19.1303 17.2064ZM18.6686 17.75C18.6686 17.4717 18.8755 17.2414 19.1437 17.205L19.09 16.8087C18.6261 16.8716 18.2686 17.2689 18.2686 17.75H18.6686ZM18.675 17.8383L18.6682 17.7366L18.2691 17.7634L18.2759 17.8652L18.675 17.8383ZM19.2186 18.3C18.9403 18.3 18.7101 18.0931 18.6737 17.8249L18.2773 17.8787C18.3402 18.3425 18.7375 18.7 19.2186 18.7V18.3ZM22.9003 18.3005L19.2187 18.3L19.2186 18.7L22.9002 18.7005L22.9003 18.3005ZM22.6788 19.0945L23.056 18.626L22.7444 18.3751L22.3673 18.8437L22.6788 19.0945ZM21.6091 20.407L22.6781 19.0955L22.368 18.8427L21.299 20.1543L21.6091 20.407ZM21.3907 20.6353L21.5983 20.4192L21.3098 20.1421L21.1023 20.3581L21.3907 20.6353ZM6.27467 21.4122C10.4321 25.2891 17.4737 24.5951 21.3887 20.6374L21.1043 20.3561C17.3169 24.1847 10.5224 24.8264 6.54747 21.1197L6.27467 21.4122ZM5.99763 21.1609L6.27668 21.4141L6.54547 21.1179L6.26642 20.8647L5.99763 21.1609ZM4.92765 20.6129C4.97278 20.5882 5.00951 20.5763 5.04708 20.5736C5.08508 20.5708 5.13775 20.5763 5.21513 20.6063C5.37761 20.6692 5.61762 20.827 6.00001 21.163L6.26404 20.8625C5.87671 20.5222 5.59215 20.3234 5.35961 20.2333C5.23948 20.1867 5.12702 20.1667 5.01785 20.1747C4.90823 20.1827 4.81573 20.218 4.73511 20.2623L4.92765 20.6129ZM4.84399 20.666L4.9379 20.6069L4.72487 20.2683L4.63097 20.3274L4.84399 20.666ZM4.81857 20.6863L4.85841 20.656L4.61655 20.3374L4.57671 20.3677L4.81857 20.6863ZM5.52448 22.2167C4.98537 21.714 4.77498 21.3475 4.71761 21.1031C4.66433 20.8762 4.74076 20.7511 4.82535 20.6809L4.56994 20.373C4.36896 20.5398 4.24012 20.8194 4.3282 21.1945C4.4122 21.5523 4.68981 21.9853 5.25168 22.5093L5.52448 22.2167ZM22.4377 21.1296C18.077 25.8058 10.1791 26.5572 5.52448 22.2167L5.25168 22.5093C10.0891 27.0202 18.2395 26.2181 22.7302 21.4024L22.4377 21.1296ZM23.5823 19.727L22.429 21.1395L22.7389 21.3925L23.8922 19.98L23.5823 19.727ZM23.9372 22.5245V19.8535H23.5372V22.5245H23.9372ZM23.9436 22.6128L23.9368 22.5111L23.5377 22.5379L23.5445 22.6397L23.9436 22.6128ZM24.4872 23.0745C24.209 23.0745 23.9787 22.8676 23.9423 22.5994L23.5459 22.6531C23.6088 23.117 24.0061 23.4745 24.4872 23.4745V23.0745ZM25.0372 22.5245C25.0372 22.8282 24.791 23.0745 24.4872 23.0745V23.4745C25.0119 23.4745 25.4372 23.0492 25.4372 22.5245H25.0372Z" fill="black" fill-opacity="0.2" mask="url(#path-1-outside-1_3616_2711)"/>
    </g>
    <defs>
        <filter id="filter0_d_3616_2711" x="0.300049" y="0.799805" width="26.1372" height="25.6899" filterUnits="userSpaceOnUse" color-interpolation-filters="sRGB">
            <feFlood flood-opacity="0" result="BackgroundImageFix"/>
            <feColorMatrix in="SourceAlpha" type="matrix" values="0 0 0 0 0 0 0 0 0 0 0 0 0 0 0 0 0 0 127 0" result="hardAlpha"/>
            <feOffset/>
            <feGaussianBlur stdDeviation="0.5"/>
            <feColorMatrix type="matrix" values="0 0 0 0 0.14902 0 0 0 0 0.14902 0 0 0 0 0.14902 0 0 0 0.4 0"/>
            <feBlend mode="normal" in2="BackgroundImageFix" result="effect1_dropShadow_3616_2711"/>
            <feBlend mode="normal" in="SourceGraphic" in2="effect1_dropShadow_3616_2711" result="shape"/>
        </filter>
    </defs>
</svg>
