<svg width="16" height="16" viewBox="0 0 16 16" fill="none" xmlns="http://www.w3.org/2000/svg">
    <path fill-rule="evenodd" clip-rule="evenodd" d="M2 8C2 4.68629 4.68629 2 8 2C9.5913 2 11.1174 2.63214 12.2426 3.75736C13.3679 4.88258 14 6.4087 14 8C14 11.3137 11.3137 14 8 14C4.68629 14 2 11.3137 2 8ZM7.2379 10.01L10.6099 6.63797C10.7204 6.52208 10.7204 6.33986 10.6099 6.22397L10.2919 5.90597C10.1752 5.79162 9.98856 5.79162 9.8719 5.90597L7.0279 8.74997L6.1279 7.85597C6.07346 7.79796 5.99745 7.76506 5.9179 7.76506C5.83835 7.76506 5.76234 7.79796 5.7079 7.85597L5.3899 8.17397C5.33311 8.2303 5.30116 8.30698 5.30116 8.38697C5.30116 8.46696 5.33311 8.54364 5.3899 8.59997L6.8179 10.01C6.87234 10.068 6.94835 10.1009 7.0279 10.1009C7.10745 10.1009 7.18346 10.068 7.2379 10.01Z" fill="#898A8D"/>
</svg>
