<svg width="32" height="32" viewBox="0 0 32 32" fill="none" xmlns="http://www.w3.org/2000/svg">
    <path d="M23.8023 21.9192C23.9285 22.0443 23.9995 22.2147 23.9995 22.3925C23.9995 22.5702 23.9285 22.7406 23.8023 22.8658L22.869 23.7992C22.7438 23.9254 22.5734 23.9964 22.3957 23.9964C22.2179 23.9964 22.0475 23.9254 21.9223 23.7992L16.0023 17.8792L10.0823 23.7992C9.95715 23.9254 9.78675 23.9964 9.60899 23.9964C9.43123 23.9964 9.26084 23.9254 9.13566 23.7992L8.20233 22.8658C8.07612 22.7406 8.00513 22.5702 8.00513 22.3925C8.00513 22.2147 8.07612 22.0443 8.20233 21.9192L14.1223 15.9992L8.20233 10.0792C8.07612 9.95397 8.00513 9.78358 8.00513 9.60582C8.00513 9.42806 8.07612 9.25766 8.20233 9.13249L9.13566 8.19915C9.26084 8.07294 9.43123 8.00195 9.60899 8.00195C9.78675 8.00195 9.95715 8.07294 10.0823 8.19915L16.0023 14.1192L21.9223 8.19915C22.0475 8.07294 22.2179 8.00195 22.3957 8.00195C22.5734 8.00195 22.7438 8.07294 22.869 8.19915L23.8023 9.13249C23.9285 9.25766 23.9995 9.42806 23.9995 9.60582C23.9995 9.78358 23.9285 9.95397 23.8023 10.0792L17.8823 15.9992L23.8023 21.9192Z" fill="white"/>
</svg>
