<svg width="16" height="16" viewBox="0 0 16 16" fill="none" xmlns="http://www.w3.org/2000/svg">
    <g clip-path="url(#clip0_3053_174785)">
        <path fill-rule="evenodd" clip-rule="evenodd" d="M16 5.78667C15.9994 5.07966 15.718 4.40184 15.2178 3.90222L12.0978 0.782222C11.5981 0.281982 10.9204 0.000622407 10.2133 0H5.76889C5.06188 0.000622407 4.38406 0.281982 3.88444 0.782222L0.782222 3.90222C0.281982 4.40184 0.000622407 5.07966 0 5.78667V10.2311C0.000622407 10.9381 0.281982 11.6159 0.782222 12.1156L3.90222 15.2356C4.40474 15.7292 5.0822 16.0041 5.78667 16H10.2311C10.9381 15.9994 11.6159 15.718 12.1156 15.2178L15.2356 12.0978C15.7292 11.5953 16.0041 10.9178 16 10.2133V5.78667ZM8.88889 11.12C8.88889 11.3654 8.6899 11.5644 8.44444 11.5644H7.55556C7.3101 11.5644 7.11111 11.3654 7.11111 11.12V10.2311C7.11111 9.98569 7.3101 9.78667 7.55556 9.78667H8.44444C8.6899 9.78667 8.88889 9.98569 8.88889 10.2311V11.12ZM8.47111 8.00889C8.58414 8.00971 8.67977 7.92555 8.69333 7.81333L9.04889 4.95111C9.06418 4.82431 9.02427 4.69704 8.9392 4.60176C8.85412 4.50648 8.73217 4.45241 8.60444 4.45333H7.39556C7.26783 4.45241 7.14588 4.50648 7.06082 4.60176C6.97574 4.69704 6.93578 4.82431 6.95111 4.95111L7.30667 7.81333C7.32023 7.92555 7.41586 8.00971 7.52889 8.00889H8.47111Z" fill="#DA1E28"/>
    </g>
    <defs>
        <clipPath id="clip0_3053_174785">
            <rect width="16" height="16" fill="white"/>
        </clipPath>
    </defs>
</svg>
