<svg width="16" height="20" viewBox="0 0 16 20" fill="none" xmlns="http://www.w3.org/2000/svg">
    <path fill-rule="evenodd" clip-rule="evenodd" d="M14 6.26926e-07H6.83C6.29696 -0.00042112 5.7858 0.211962 5.41 0.590001L0.590001 5.41C0.211962 5.7858 -0.00042112 6.29696 6.26926e-07 6.83V18C6.26926e-07 19.1046 0.895432 20 2 20H14C15.1046 20 16 19.1046 16 18V2C16 0.895432 15.1046 6.26926e-07 14 6.26926e-07ZM1.82007 7.00031L7.00007 1.82031V6.00031C7.00007 6.5526 6.55235 7.00031 6.00007 7.00031H1.82007ZM8.88 13.88H10.5C10.7761 13.88 11 13.6561 11 13.38V12.62C11 12.3439 10.7761 12.12 10.5 12.12H8.88V10.5C8.88 10.2239 8.65614 10 8.38 10H7.62C7.34386 10 7.12 10.2239 7.12 10.5V12.12H5.5C5.22386 12.12 5 12.3439 5 12.62V13.38C5 13.6561 5.22386 13.88 5.5 13.88H7.12V15.5C7.12 15.7761 7.34386 16 7.62 16H8.38C8.65614 16 8.88 15.7761 8.88 15.5V13.88Z" fill="#0F62FE"/>
</svg>
