<svg width="34" height="34" viewBox="0 0 34 34" fill="none" xmlns="http://www.w3.org/2000/svg">
    <circle cx="17" cy="17" r="17" fill="#F0F0F3"/>
    <path fill-rule="evenodd" clip-rule="evenodd" d="M21.1583 13.2329C21.1583 15.5825 19.2851 17.4666 16.949 17.4666C14.6129 17.4666 12.7397 15.5825 12.7397 13.2329C12.7397 10.8823 14.6129 9 16.949 9C19.2851 9 21.1583 10.8823 21.1583 13.2329ZM16.949 25C13.5178 25 10.5881 24.456 10.5881 22.2802C10.5881 20.1034 13.499 19.5396 16.949 19.5396C20.3802 19.5396 23.31 20.0836 23.31 22.2604C23.31 24.4362 20.399 25 16.949 25ZM22.9571 13.3092C22.9571 14.507 22.5998 15.6229 21.973 16.5505C21.9086 16.646 21.9659 16.7748 22.0796 16.7946C22.2363 16.8216 22.3984 16.8369 22.5631 16.8414C24.2062 16.8846 25.6809 15.821 26.0883 14.2197C26.6918 11.8412 24.9198 9.7059 22.6634 9.7059C22.4181 9.7059 22.1835 9.73201 21.9551 9.77884C21.9238 9.78605 21.8907 9.80046 21.8728 9.82838C21.8513 9.8626 21.8674 9.90853 21.8889 9.93825C22.5667 10.8938 22.9571 12.0592 22.9571 13.3092ZM25.6782 18.5126C26.7823 18.7296 27.5084 19.1727 27.8093 19.8166C28.0636 20.3453 28.0636 20.9586 27.8093 21.4864C27.349 22.4851 25.8654 22.8058 25.2887 22.8886C25.1696 22.9066 25.0738 22.8031 25.0864 22.6833C25.3809 19.9157 23.0377 18.6035 22.4315 18.3018C22.4055 18.2883 22.4002 18.2676 22.4028 18.255C22.4046 18.246 22.4154 18.2316 22.4351 18.2289C23.7468 18.2046 25.1571 18.3847 25.6782 18.5126ZM11.4371 16.8413C11.6019 16.8368 11.763 16.8224 11.9206 16.7945C12.0343 16.7747 12.0916 16.6459 12.0272 16.5504C11.4004 15.6228 11.0431 14.5069 11.0431 13.3091C11.0431 12.0591 11.4335 10.8937 12.1113 9.93816C12.1328 9.90844 12.1481 9.86251 12.1275 9.82829C12.1096 9.80127 12.0755 9.78596 12.0451 9.77875C11.8159 9.73192 11.5813 9.70581 11.3359 9.70581C9.07951 9.70581 7.30751 11.8411 7.91191 14.2196C8.31932 15.8209 9.79405 16.8845 11.4371 16.8413ZM11.5969 18.2545C11.5996 18.268 11.5943 18.2878 11.5692 18.3022C10.9621 18.6039 8.61883 19.9161 8.91342 22.6827C8.92595 22.8034 8.83104 22.9061 8.71195 22.889C8.13531 22.8061 6.65163 22.4855 6.19139 21.4867C5.9362 20.9581 5.9362 20.3457 6.19139 19.817C6.49225 19.1731 7.21752 18.73 8.32156 18.512C8.84358 18.385 10.2529 18.2049 11.5656 18.2292C11.5853 18.2319 11.5951 18.2464 11.5969 18.2545Z" fill="#200E32"/>
</svg>
