<svg width="21" height="20" viewBox="0 0 21 20" fill="none" xmlns="http://www.w3.org/2000/svg">
    <path fill-rule="evenodd" clip-rule="evenodd" d="M10.0684 0C15.5912 0 20.0684 4.47715 20.0684 10C20.0684 15.5228 15.5912 20 10.0684 20C4.54551 20 0.0683594 15.5228 0.0683594 10C0.0683594 4.47715 4.54551 0 10.0684 0ZM13.9947 13.1013C12.9998 14.3755 11.7148 14.9968 10.0682 14.9968C8.42161 14.9968 7.13655 14.3755 6.1417 13.1013C5.85846 12.7385 5.33478 12.6741 4.97202 12.9573C4.60925 13.2405 4.54479 13.7642 4.82802 14.127C6.14009 15.8074 7.91058 16.6634 10.0682 16.6634C12.2258 16.6634 13.9963 15.8074 15.3084 14.127C15.5916 13.7642 15.5271 13.2405 15.1644 12.9573C14.8016 12.6741 14.2779 12.7385 13.9947 13.1013ZM6.73523 6.66504C6.04487 6.66504 5.48523 7.41123 5.48523 8.33171C5.48523 9.25218 6.04487 9.99837 6.73523 9.99837C7.42559 9.99837 7.98523 9.25218 7.98523 8.33171C7.98523 7.41123 7.42559 6.66504 6.73523 6.66504ZM13.4015 6.66504C12.7111 6.66504 12.1515 7.41123 12.1515 8.33171C12.1515 9.25218 12.7111 9.99837 13.4015 9.99837C14.0918 9.99837 14.6515 9.25218 14.6515 8.33171C14.6515 7.41123 14.0918 6.66504 13.4015 6.66504Z" fill="#0F62FE"/>
</svg>
