<svg width="22" height="18" viewBox="0 0 22 18" fill="none" xmlns="http://www.w3.org/2000/svg">
    <path fill-rule="evenodd" clip-rule="evenodd" d="M22 2C22 0.89543 20.9056 0 19.5556 0H2.44444C1.09441 0 0 0.89543 0 2V16C0 17.1046 1.09441 18 2.44444 18H19.5556C20.9056 18 22 17.1046 22 16V2ZM7.94442 5C8.95694 5 9.77775 5.67157 9.77775 6.5C9.77775 7.32843 8.95694 8 7.94442 8C6.9319 8 6.11108 7.32843 6.11108 6.5C6.11108 5.67157 6.9319 5 7.94442 5ZM17.7223 14.9993C18.0598 14.9993 18.3334 14.7754 18.3334 14.4993L18.3212 14.1693C18.3212 14.0534 18.2739 13.9407 18.1867 13.8493L13.6156 9.1793C13.4997 9.06101 13.3243 8.99219 13.139 8.99219C12.9536 8.99219 12.7783 9.06101 12.6623 9.1793L9.86341 12.0593C9.74765 12.1813 9.56945 12.2527 9.38064 12.2527C9.19183 12.2527 9.01362 12.1813 8.89786 12.0593L7.67564 10.6993C7.55769 10.5732 7.3747 10.4993 7.18064 10.4993C6.98657 10.4993 6.80358 10.5732 6.68564 10.6993L3.78897 13.8693C3.71041 13.9562 3.66761 14.0612 3.66675 14.1693V14.4993C3.66675 14.7754 3.94035 14.9993 4.27786 14.9993H17.7223Z" fill="#0F62FE"/>
</svg>
