<svg width="16" height="16" viewBox="0 0 16 16" fill="none" xmlns="http://www.w3.org/2000/svg">
    <path d="M8 0C12.4183 0 16 3.58172 16 8C16 12.4183 12.4183 16 8 16C3.58172 16 0 12.4183 0 8C0 3.58172 3.58172 0 8 0ZM8 1.33333C4.3181 1.33333 1.33333 4.3181 1.33333 8C1.33333 11.6819 4.3181 14.6667 8 14.6667C11.6819 14.6667 14.6667 11.6819 14.6667 8C14.6667 4.3181 11.6819 1.33333 8 1.33333ZM8 3.33333C10.5773 3.33333 12.6667 5.42267 12.6667 8C12.6667 10.5773 10.5773 12.6667 8 12.6667C5.42267 12.6667 3.33333 10.5773 3.33333 8C3.33333 5.42267 5.42267 3.33333 8 3.33333Z" fill="#0F62FE"/>
</svg>
