<svg width="20" height="20" viewBox="0 0 20 20" fill="none" xmlns="http://www.w3.org/2000/svg">
    <path d="M18.05 18.7508C17.9388 18.7524 17.8292 18.7242 17.7325 18.6693C17.6358 18.6144 17.5555 18.5346 17.5 18.4383C16.6676 17.0203 15.4811 15.8427 14.0568 15.021C12.6325 14.1993 11.0192 13.7616 9.37496 13.7508V17.5008C9.37435 17.6242 9.33722 17.7447 9.26826 17.847C9.1993 17.9493 9.1016 18.0289 8.98746 18.0758C8.87364 18.1237 8.7482 18.1368 8.62695 18.1134C8.50571 18.09 8.3941 18.0313 8.30621 17.9446L0.806212 10.4446C0.747632 10.3865 0.701135 10.3173 0.669405 10.2412C0.637674 10.165 0.621338 10.0833 0.621338 10.0008C0.621338 9.91831 0.637674 9.83662 0.669405 9.76046C0.701135 9.6843 0.747632 9.61517 0.806212 9.55707L8.30621 2.05707C8.3941 1.97035 8.50571 1.9116 8.62695 1.88824C8.7482 1.86488 8.87364 1.87796 8.98746 1.92582C9.1016 1.97271 9.1993 2.05233 9.26826 2.15466C9.33722 2.25698 9.37435 2.37743 9.37496 2.50082V6.31957C11.9607 6.65169 14.3375 7.91266 16.0623 9.86748C17.7872 11.8223 18.7424 14.3376 18.75 16.9446C18.7485 17.3625 18.7213 17.78 18.6687 18.1946C18.6531 18.3246 18.597 18.4464 18.5084 18.5429C18.4199 18.6393 18.3032 18.7055 18.175 18.7321L18.05 18.7508ZM9.06246 12.5008C10.6565 12.4779 12.2364 12.8014 13.6932 13.4488C15.15 14.0963 16.4488 15.0523 17.5 16.2508C17.3119 13.9836 16.3222 11.8575 14.7084 10.2539C13.0945 8.65039 10.9621 7.67433 8.69371 7.50082C8.53789 7.48674 8.39301 7.41473 8.2877 7.29901C8.1824 7.18329 8.12433 7.03228 8.12496 6.87582V4.00707L2.13121 10.0008L8.12496 15.9946V13.1258C8.12496 12.9601 8.19081 12.8011 8.30802 12.6839C8.42523 12.5667 8.5842 12.5008 8.74996 12.5008H9.08746H9.06246Z" fill="#161616"/>
</svg>
