<svg width="30" height="30" viewBox="0 0 30 30" fill="none" xmlns="http://www.w3.org/2000/svg">
    <path d="M25.7343 14.1654L5.1093 3.85292C4.94764 3.77207 4.76607 3.73968 4.58643 3.75964C4.4068 3.7796 4.23676 3.85106 4.0968 3.96542C3.96313 4.07744 3.86337 4.22453 3.80871 4.39015C3.75406 4.55576 3.74669 4.73334 3.78742 4.90292L6.2718 14.0623H16.8749V15.9373H6.2718L3.74992 25.0685C3.7117 25.2102 3.70723 25.3588 3.73689 25.5024C3.76655 25.6461 3.82951 25.7808 3.9207 25.8957C4.01188 26.0106 4.12876 26.1024 4.26192 26.164C4.39509 26.2255 4.54083 26.2549 4.68742 26.2498C4.83418 26.2489 4.97868 26.2136 5.1093 26.1467L25.7343 15.8342C25.8879 15.7555 26.0167 15.636 26.1067 15.4888C26.1967 15.3415 26.2443 15.1723 26.2443 14.9998C26.2443 14.8272 26.1967 14.6581 26.1067 14.5108C26.0167 14.3636 25.8879 14.2441 25.7343 14.1654V14.1654Z" fill="#0F62FE"/>
</svg>
